<?xml version="1.0" encoding="utf-8" ?>
<svg xmlns="http://www.w3.org/2000/svg" xmlns:xlink="http://www.w3.org/1999/xlink" width="1024" height="1023">
	<defs>
		<linearGradient id="gradient_0" gradientUnits="userSpaceOnUse" x1="429.7019" y1="76.557167" x2="82.422081" y2="435.50589">
			<stop offset="0" stop-color="#EFA289"/>
			<stop offset="1" stop-color="#8239B6"/>
		</linearGradient>
	</defs>
	<path fill="url(#gradient_0)" transform="scale(1.5)" d="M502.655 215.299C503.941 221.306 504.409 227.578 504.934 233.691C513.329 331.382 464.443 427.395 377.114 474.33C304.244 513.494 216.58 514.865 142.932 477.897C-19.066 396.58 -41.7928 172.195 103.199 58.6949C152.456 20.1363 215.731 1.6991 278.019 6.94393C291.696 8.09553 305.606 10.0447 318.77 14.0414C327.055 15.6913 335.303 18.7539 343.215 21.6818C424.249 51.6697 490.381 129.052 502.655 215.299ZM241.686 223.494C178.637 223.371 129.4 276.011 129.283 338.076L129.286 360.851C129.241 388.892 132.307 400.104 163.017 400.085L251.843 400.07C255.752 400.052 259.657 399.837 263.562 400.078L279.611 400.075C283.425 400.067 288.431 400.303 292.12 399.49L291.028 399.335L290.908 399.042C286.652 397.996 282.322 397.17 278.187 395.692C239.656 381.922 217.211 341.388 227.33 301.533C237.063 263.199 271.209 244.97 308.375 245.129C292.059 232.051 262.544 222.392 241.686 223.494ZM238.624 113.249C225.797 113.469 213.55 119.395 204.726 128.58C175.802 158.69 200.912 210.676 241.686 208C282.488 207.383 303.682 156.257 273.553 127.013C264.477 118.203 251.5 111.958 238.624 113.249ZM293.843 265.906C261.398 270.73 261.755 315.95 292.831 322.056C299.15 323.297 306.114 322.76 312.54 322.754L341.582 322.728C345.798 322.722 351.208 322.023 355.19 323.433C367.854 327.918 366.664 346.822 352.903 348.73C347.981 349.413 341.388 348.917 336.315 348.909L303.469 348.889C295.811 348.892 277.932 347.223 280.378 360.797C281.99 369.743 292.052 369.096 298.878 369.088L313.479 369.055L335.208 369.067C343.141 369.068 351.629 369.771 359.312 367.552C392.587 357.943 391.009 311.916 359.283 303.6C351.992 301.688 342.239 302.477 334.666 302.479L307.063 302.484C303.139 302.485 297.674 303.221 294.038 301.489C289.335 299.248 287.923 291.753 291.572 287.994C298.258 281.107 327.397 293.803 327.494 275.917C327.568 262.212 302.393 265.274 293.843 265.906Z"/>
</svg>
